<svg width="64" height="64" viewBox="0 0 64 64" fill="none" xmlns="http://www.w3.org/2000/svg">
  <defs>
    <linearGradient id="g" x1="8" y1="8" x2="56" y2="56" gradientUnits="userSpaceOnUse">
      <stop stop-color="#0EA5E9"/>
      <stop offset="0.5" stop-color="#0284C7"/>
      <stop offset="1" stop-color="#10B981"/>
    </linearGradient>
  </defs>
  <rect x="6" y="6" width="52" height="52" rx="14" fill="url(#g)"/>
  <path
    d="M23 45H43C49.2 45 54.2 40.1 54.2 34C54.2 28.6 50.4 24.1 45.1 23.1C44 17.2 38.8 12.7 32.6 12.7C25.4 12.7 19.6 18.5 19.6 25.7C19.6 26.1 19.6 26.6 19.7 27C15.1 28.5 12 33 12 38C12 42.1 15.3 45 19.4 45H23Z"
    fill="white"
    fill-rule="evenodd"
    clip-rule="evenodd"
  />
  <path d="M46 15L47.1 18.2L50.3 19.3L47.1 20.4L46 23.6L44.9 20.4L41.7 19.3L44.9 18.2L46 15Z" fill="white" opacity="0.92"/>
</svg>

