<svg viewBox="0 0 64 64" xmlns="http://www.w3.org/2000/svg" xmlns:xlink="http://www.w3.org/1999/xlink" width="64.000000" height="64.000000" fill="none" customFrame="#000000">
	<defs>
		<clipPath id="clipPath_0">
			<rect width="38.000000" height="42.000000" x="12.999985" y="11.000000" fill="rgb(255,255,255)" />
		</clipPath>
	</defs>
	<rect id="容器 1" width="64.000000" height="64.000000" x="0.000000" y="0.000000" />
	<rect id="矩形 5" width="64.000000" height="64.000000" x="0.000000" y="0.000000" fill="rgb(64,158,255)" />
	<g id="服务器 1" clip-path="url(#clipPath_0)" customFrame="url(#clipPath_0)">
		<rect id="服务器 1" width="38.000000" height="42.000000" x="12.999985" y="11.000000" />
		<path id="矢量 4" d="M16.1667 14.5L16.1667 28.5L47.8333 28.5L47.8333 14.5L16.1667 14.5Z" fill-rule="nonzero" stroke="rgb(255,255,255)" stroke-linejoin="round" stroke-width="1.500000" />
		<path id="矢量 5" d="M16.1667 35.5L16.1667 49.5L47.8333 49.5L47.8333 35.5L16.1667 35.5Z" fill-rule="nonzero" stroke="rgb(255,255,255)" stroke-linejoin="round" stroke-width="1.500000" />
		<path id="矢量 6" d="M23.2917 19.75L21.7083 19.75C21.2711 19.75 20.9167 20.1417 20.9167 20.625L20.9167 22.375C20.9167 22.8583 21.2711 23.25 21.7083 23.25L23.2917 23.25C23.7289 23.25 24.0833 22.8583 24.0833 22.375L24.0833 20.625C24.0833 20.1417 23.7289 19.75 23.2917 19.75Z" fill="rgb(255,255,255)" fill-rule="nonzero" />
		<path id="矢量 7" d="M23.2917 40.75L21.7083 40.75C21.2711 40.75 20.9167 41.1417 20.9167 41.625L20.9167 43.375C20.9167 43.8583 21.2711 44.25 21.7083 44.25L23.2917 44.25C23.7289 44.25 24.0833 43.8583 24.0833 43.375L24.0833 41.625C24.0833 41.1417 23.7289 40.75 23.2917 40.75Z" fill="rgb(255,255,255)" fill-rule="nonzero" />
		<path id="矢量 8" d="M29.625 19.75L28.0417 19.75C27.6044 19.75 27.25 20.1417 27.25 20.625L27.25 22.375C27.25 22.8583 27.6044 23.25 28.0417 23.25L29.625 23.25C30.0622 23.25 30.4167 22.8583 30.4167 22.375L30.4167 20.625C30.4167 20.1417 30.0622 19.75 29.625 19.75Z" fill="rgb(255,255,255)" fill-rule="nonzero" />
		<path id="矢量 9" d="M29.625 40.75L28.0417 40.75C27.6044 40.75 27.25 41.1417 27.25 41.625L27.25 43.375C27.25 43.8583 27.6044 44.25 28.0417 44.25L29.625 44.25C30.0622 44.25 30.4167 43.8583 30.4167 43.375L30.4167 41.625C30.4167 41.1417 30.0622 40.75 29.625 40.75Z" fill="rgb(255,255,255)" fill-rule="nonzero" />
	</g>
</svg>
