<svg viewBox="0 0 64 64" xmlns="http://www.w3.org/2000/svg" xmlns:xlink="http://www.w3.org/1999/xlink" width="64.000000" height="64.000000" fill="none" customFrame="#000000">
	<defs>
		<clipPath id="clipPath_0">
			<rect width="46.000000" height="46.000000" x="9.000000" y="9.000000" fill="rgb(255,255,255)" />
		</clipPath>
	</defs>
	<g id="组合 1">
		<rect id="矩形 6" width="64.000000" height="64.000000" x="0.000000" y="0.000000" rx="8.000000" fill="rgb(0,0,0)" />
		<g id="应用菜单 1" clip-path="url(#clipPath_0)" customFrame="url(#clipPath_0)">
			<rect id="应用菜单 1" width="46.000000" height="46.000000" x="9.000000" y="9.000000" />
			<path id="矢量 4" d="M18.5833 22.4167C20.7004 22.4167 22.4167 20.7004 22.4167 18.5833C22.4167 16.4662 20.7004 14.75 18.5833 14.75C16.4662 14.75 14.75 16.4662 14.75 18.5833C14.75 20.7004 16.4662 22.4167 18.5833 22.4167Z" fill="rgb(255,255,255)" fill-rule="nonzero" />
			<path id="矢量 5" d="M32 22.4167C34.1171 22.4167 35.8333 20.7004 35.8333 18.5833C35.8333 16.4662 34.1171 14.75 32 14.75C29.8829 14.75 28.1667 16.4662 28.1667 18.5833C28.1667 20.7004 29.8829 22.4167 32 22.4167Z" fill="rgb(255,255,255)" fill-rule="nonzero" />
			<path id="矢量 6" d="M45.4167 22.4167C47.5337 22.4167 49.25 20.7004 49.25 18.5833C49.25 16.4662 47.5337 14.75 45.4167 14.75C43.2996 14.75 41.5833 16.4662 41.5833 18.5833C41.5833 20.7004 43.2996 22.4167 45.4167 22.4167Z" fill="rgb(255,255,255)" fill-rule="nonzero" />
			<path id="矢量 7" d="M18.5833 35.8334C20.7004 35.8334 22.4167 34.1171 22.4167 32.0001C22.4167 29.883 20.7004 28.1667 18.5833 28.1667C16.4662 28.1667 14.75 29.883 14.75 32.0001C14.75 34.1171 16.4662 35.8334 18.5833 35.8334Z" fill="rgb(255,255,255)" fill-rule="nonzero" />
			<path id="矢量 8" d="M32 35.8334C34.1171 35.8334 35.8333 34.1171 35.8333 32.0001C35.8333 29.883 34.1171 28.1667 32 28.1667C29.8829 28.1667 28.1667 29.883 28.1667 32.0001C28.1667 34.1171 29.8829 35.8334 32 35.8334Z" fill="rgb(255,255,255)" fill-rule="nonzero" />
			<path id="矢量 9" d="M45.4167 35.8334C47.5337 35.8334 49.25 34.1171 49.25 32.0001C49.25 29.883 47.5337 28.1667 45.4167 28.1667C43.2996 28.1667 41.5833 29.883 41.5833 32.0001C41.5833 34.1171 43.2996 35.8334 45.4167 35.8334Z" fill="rgb(255,255,255)" fill-rule="nonzero" />
			<path id="矢量 10" d="M18.5833 49.2499C20.7004 49.2499 22.4167 47.5336 22.4167 45.4166C22.4167 43.2995 20.7004 41.5833 18.5833 41.5833C16.4662 41.5833 14.75 43.2995 14.75 45.4166C14.75 47.5336 16.4662 49.2499 18.5833 49.2499Z" fill="rgb(255,255,255)" fill-rule="nonzero" />
			<path id="矢量 11" d="M32 49.2499C34.1171 49.2499 35.8333 47.5336 35.8333 45.4166C35.8333 43.2995 34.1171 41.5833 32 41.5833C29.8829 41.5833 28.1667 43.2995 28.1667 45.4166C28.1667 47.5336 29.8829 49.2499 32 49.2499Z" fill="rgb(255,255,255)" fill-rule="nonzero" />
			<path id="矢量 12" d="M45.4167 49.2499C47.5337 49.2499 49.25 47.5336 49.25 45.4166C49.25 43.2995 47.5337 41.5833 45.4167 41.5833C43.2996 41.5833 41.5833 43.2995 41.5833 45.4166C41.5833 47.5336 43.2996 49.2499 45.4167 49.2499Z" fill="rgb(255,255,255)" fill-rule="nonzero" />
		</g>
	</g>
</svg>
